<mxfile host="app.diagrams.net" modified="2021-12-17T03:26:40.328Z" agent="5.0 (Macintosh; Intel Mac OS X 10_15_7) AppleWebKit/537.36 (KHTML, like Gecko) Chrome/96.0.4664.110 Safari/537.36" etag="zoTyTT1Jr6c1vn-xPo40" version="15.9.1" type="github">
  <diagram id="mE28kNxgSdMspop8lVdW" name="Page-1">
    <mxGraphModel dx="2066" dy="1078" grid="1" gridSize="10" guides="1" tooltips="1" connect="1" arrows="1" fold="1" page="1" pageScale="1" pageWidth="980" pageHeight="1390" math="0" shadow="0">
      <root>
        <mxCell id="0" />
        <mxCell id="1" parent="0" />
        <mxCell id="kTvCtjAMfttdh1AB2isz-2" style="edgeStyle=orthogonalEdgeStyle;rounded=0;orthogonalLoop=1;jettySize=auto;html=1;entryX=0;entryY=0.25;entryDx=0;entryDy=0;dashed=1;startArrow=classic;startFill=1;endArrow=none;endFill=0;" edge="1" parent="1" source="kTvCtjAMfttdh1AB2isz-15" target="kTvCtjAMfttdh1AB2isz-10">
          <mxGeometry relative="1" as="geometry">
            <Array as="points">
              <mxPoint x="420" y="120" />
              <mxPoint x="420" y="300" />
            </Array>
          </mxGeometry>
        </mxCell>
        <mxCell id="kTvCtjAMfttdh1AB2isz-3" style="edgeStyle=orthogonalEdgeStyle;rounded=0;orthogonalLoop=1;jettySize=auto;html=1;entryX=0;entryY=0.156;entryDx=0;entryDy=0;entryPerimeter=0;endArrow=none;endFill=0;dashed=1;" edge="1" parent="1" source="kTvCtjAMfttdh1AB2isz-15" target="kTvCtjAMfttdh1AB2isz-8">
          <mxGeometry relative="1" as="geometry">
            <Array as="points">
              <mxPoint x="420" y="120" />
              <mxPoint x="420" y="468" />
            </Array>
          </mxGeometry>
        </mxCell>
        <mxCell id="kTvCtjAMfttdh1AB2isz-4" value="" style="rounded=0;whiteSpace=wrap;html=1;fillColor=#d5e8d4;strokeColor=#82b366;" vertex="1" parent="1">
          <mxGeometry x="90" y="230" width="280" height="400" as="geometry" />
        </mxCell>
        <mxCell id="kTvCtjAMfttdh1AB2isz-5" style="edgeStyle=orthogonalEdgeStyle;rounded=0;orthogonalLoop=1;jettySize=auto;html=1;entryX=0.5;entryY=0;entryDx=0;entryDy=0;startArrow=none;startFill=0;endArrow=block;endFill=1;exitX=0.5;exitY=1;exitDx=0;exitDy=0;" edge="1" parent="1" source="kTvCtjAMfttdh1AB2isz-19" target="kTvCtjAMfttdh1AB2isz-25">
          <mxGeometry relative="1" as="geometry" />
        </mxCell>
        <mxCell id="kTvCtjAMfttdh1AB2isz-6" style="edgeStyle=orthogonalEdgeStyle;rounded=0;orthogonalLoop=1;jettySize=auto;html=1;entryX=0.5;entryY=0;entryDx=0;entryDy=0;startArrow=none;startFill=0;endArrow=block;endFill=1;" edge="1" parent="1" source="kTvCtjAMfttdh1AB2isz-19" target="kTvCtjAMfttdh1AB2isz-26">
          <mxGeometry relative="1" as="geometry" />
        </mxCell>
        <mxCell id="kTvCtjAMfttdh1AB2isz-7" style="edgeStyle=orthogonalEdgeStyle;rounded=0;orthogonalLoop=1;jettySize=auto;html=1;endArrow=block;endFill=1;entryX=0.5;entryY=1;entryDx=0;entryDy=0;" edge="1" parent="1" source="kTvCtjAMfttdh1AB2isz-8" target="kTvCtjAMfttdh1AB2isz-10">
          <mxGeometry relative="1" as="geometry">
            <Array as="points">
              <mxPoint x="560" y="420" />
              <mxPoint x="560" y="420" />
            </Array>
          </mxGeometry>
        </mxCell>
        <mxCell id="kTvCtjAMfttdh1AB2isz-8" value="" style="rounded=1;arcSize=10;dashed=1;strokeColor=#6c8ebf;fillColor=#dae8fc;dashPattern=8 3 1 3;strokeWidth=2;" vertex="1" parent="1">
          <mxGeometry x="442" y="440" width="240" height="180" as="geometry" />
        </mxCell>
        <mxCell id="kTvCtjAMfttdh1AB2isz-9" style="edgeStyle=orthogonalEdgeStyle;rounded=0;orthogonalLoop=1;jettySize=auto;html=1;exitX=1;exitY=0.5;exitDx=0;exitDy=0;startArrow=none;startFill=0;endArrow=block;endFill=1;" edge="1" parent="1" source="kTvCtjAMfttdh1AB2isz-11">
          <mxGeometry relative="1" as="geometry">
            <mxPoint x="820" y="320" as="targetPoint" />
          </mxGeometry>
        </mxCell>
        <mxCell id="kTvCtjAMfttdh1AB2isz-10" value="" style="rounded=1;arcSize=10;dashed=1;strokeColor=#d6b656;fillColor=#fff2cc;dashPattern=8 3 1 3;strokeWidth=2;" vertex="1" parent="1">
          <mxGeometry x="440" y="280" width="240" height="80" as="geometry" />
        </mxCell>
        <mxCell id="kTvCtjAMfttdh1AB2isz-11" value="FDS Rule Data Builder Api" style="rounded=1;whiteSpace=wrap;html=1;" vertex="1" parent="1">
          <mxGeometry x="464" y="290" width="196" height="60" as="geometry" />
        </mxCell>
        <mxCell id="kTvCtjAMfttdh1AB2isz-12" value="FDS RealTime Rule API" style="rounded=1;whiteSpace=wrap;html=1;" vertex="1" parent="1">
          <mxGeometry x="464" y="540" width="198" height="60" as="geometry" />
        </mxCell>
        <mxCell id="kTvCtjAMfttdh1AB2isz-13" value="FDS Standard Rule API" style="rounded=1;whiteSpace=wrap;html=1;fillColor=#f8cecc;strokeColor=#b85450;" vertex="1" parent="1">
          <mxGeometry x="464" y="460" width="198" height="60" as="geometry" />
        </mxCell>
        <mxCell id="kTvCtjAMfttdh1AB2isz-14" style="edgeStyle=orthogonalEdgeStyle;rounded=0;orthogonalLoop=1;jettySize=auto;html=1;entryX=1;entryY=0.132;entryDx=0;entryDy=0;entryPerimeter=0;startArrow=classic;startFill=1;endArrow=none;endFill=0;dashed=1;exitX=0;exitY=0.5;exitDx=0;exitDy=0;" edge="1" parent="1" source="kTvCtjAMfttdh1AB2isz-15">
          <mxGeometry relative="1" as="geometry">
            <mxPoint x="503" y="120" as="sourcePoint" />
            <mxPoint x="370" y="244.1199999999999" as="targetPoint" />
            <Array as="points">
              <mxPoint x="420" y="120" />
              <mxPoint x="420" y="244" />
            </Array>
          </mxGeometry>
        </mxCell>
        <mxCell id="kTvCtjAMfttdh1AB2isz-15" value="FDS Configure Api" style="rounded=1;whiteSpace=wrap;html=1;" vertex="1" parent="1">
          <mxGeometry x="480" y="80" width="126" height="80" as="geometry" />
        </mxCell>
        <mxCell id="kTvCtjAMfttdh1AB2isz-16" value="pre-processing&#xa;&#xa;(preparing data)&#xa;&#xa;&#xa;&#xa;&#xa;&#xa;&#xa; " style="shape=module;align=left;spacingLeft=20;align=center;verticalAlign=top;" vertex="1" parent="1">
          <mxGeometry x="130" y="340" width="190" height="60" as="geometry" />
        </mxCell>
        <mxCell id="kTvCtjAMfttdh1AB2isz-17" style="edgeStyle=orthogonalEdgeStyle;rounded=0;orthogonalLoop=1;jettySize=auto;html=1;entryX=-0.026;entryY=0.441;entryDx=0;entryDy=0;entryPerimeter=0;endArrow=block;endFill=1;" edge="1" parent="1" source="kTvCtjAMfttdh1AB2isz-18" target="kTvCtjAMfttdh1AB2isz-8">
          <mxGeometry relative="1" as="geometry">
            <Array as="points">
              <mxPoint x="400" y="469" />
              <mxPoint x="400" y="519" />
            </Array>
          </mxGeometry>
        </mxCell>
        <mxCell id="kTvCtjAMfttdh1AB2isz-18" value="processing&#xa;&#xa;1.rule integration&#xa;2.gray rule (standard/realtime)" style="shape=module;align=left;spacingLeft=20;align=center;verticalAlign=top;" vertex="1" parent="1">
          <mxGeometry x="130" y="430" width="190" height="70" as="geometry" />
        </mxCell>
        <mxCell id="kTvCtjAMfttdh1AB2isz-19" value="post-processing&#xa;&#xa;(save, logging)" style="shape=module;align=left;spacingLeft=20;align=center;verticalAlign=top;" vertex="1" parent="1">
          <mxGeometry x="130" y="530" width="190" height="70" as="geometry" />
        </mxCell>
        <mxCell id="kTvCtjAMfttdh1AB2isz-20" style="edgeStyle=orthogonalEdgeStyle;rounded=0;orthogonalLoop=1;jettySize=auto;html=1;startArrow=block;startFill=1;endArrow=none;endFill=0;" edge="1" parent="1">
          <mxGeometry relative="1" as="geometry">
            <mxPoint x="230" y="70" as="targetPoint" />
            <mxPoint x="230" y="230" as="sourcePoint" />
          </mxGeometry>
        </mxCell>
        <mxCell id="kTvCtjAMfttdh1AB2isz-21" value="validator&#xa;&#xa;(auth request validation)&#xa;&#xa;&#xa;&#xa;&#xa;&#xa;&#xa; " style="shape=module;align=left;spacingLeft=20;align=center;verticalAlign=top;" vertex="1" parent="1">
          <mxGeometry x="130" y="260" width="190" height="60" as="geometry" />
        </mxCell>
        <mxCell id="kTvCtjAMfttdh1AB2isz-22" style="edgeStyle=orthogonalEdgeStyle;rounded=0;orthogonalLoop=1;jettySize=auto;html=1;exitX=0.5;exitY=1;exitDx=0;exitDy=0;startArrow=block;startFill=1;endArrow=none;endFill=0;" edge="1" parent="1" source="kTvCtjAMfttdh1AB2isz-23">
          <mxGeometry relative="1" as="geometry">
            <mxPoint x="680" y="305" as="targetPoint" />
            <Array as="points">
              <mxPoint x="755" y="305" />
            </Array>
          </mxGeometry>
        </mxCell>
        <mxCell id="kTvCtjAMfttdh1AB2isz-23" value="nBase-ARC 2" style="shape=datastore;whiteSpace=wrap;html=1;" vertex="1" parent="1">
          <mxGeometry x="700" y="160" width="110" height="80" as="geometry" />
        </mxCell>
        <mxCell id="kTvCtjAMfttdh1AB2isz-24" value="External API&#39;s" style="rounded=1;whiteSpace=wrap;html=1;fillColor=#f5f5f5;strokeColor=#666666;fontColor=#333333;" vertex="1" parent="1">
          <mxGeometry x="820" y="280" width="120" height="80" as="geometry" />
        </mxCell>
        <mxCell id="kTvCtjAMfttdh1AB2isz-25" value="MYSQL 8" style="shape=datastore;whiteSpace=wrap;html=1;" vertex="1" parent="1">
          <mxGeometry x="90" y="700" width="100" height="80" as="geometry" />
        </mxCell>
        <mxCell id="kTvCtjAMfttdh1AB2isz-26" value="LOG" style="shape=datastore;whiteSpace=wrap;html=1;" vertex="1" parent="1">
          <mxGeometry x="280" y="700" width="100" height="80" as="geometry" />
        </mxCell>
      </root>
    </mxGraphModel>
  </diagram>
</mxfile>
